<svg width="648" height="648" viewBox="0 0 648 648" fill="none" xmlns="http://www.w3.org/2000/svg">
<g filter="url(#filter0_d_2_119)">
<rect x="4" width="640" height="640" rx="20" fill="#707071"/>
</g>
<path d="M177.672 497.96C177.672 495.187 178.162 492.477 179.144 489.832C180.168 487.144 181.64 484.712 183.56 482.536C185.48 480.317 187.826 478.568 190.6 477.288C193.373 475.965 196.53 475.304 200.072 475.304C204.253 475.304 207.858 476.221 210.888 478.056C213.96 479.891 216.242 482.28 217.736 485.224L210.951 489.896C210.184 488.189 209.181 486.845 207.944 485.864C206.706 484.84 205.384 484.136 203.976 483.752C202.568 483.325 201.181 483.112 199.816 483.112C197.597 483.112 195.656 483.56 193.992 484.456C192.37 485.352 191.005 486.525 189.896 487.976C188.786 489.427 187.954 491.048 187.4 492.84C186.888 494.632 186.632 496.424 186.632 498.216C186.632 500.221 186.952 502.163 187.592 504.04C188.232 505.875 189.128 507.517 190.28 508.968C191.474 510.376 192.882 511.507 194.503 512.36C196.168 513.171 197.981 513.576 199.944 513.576C201.352 513.576 202.781 513.341 204.232 512.872C205.682 512.403 207.026 511.656 208.264 510.632C209.501 509.608 210.461 508.285 211.144 506.664L218.376 510.824C217.48 513.085 216.008 515.005 213.96 516.584C211.954 518.163 209.693 519.357 207.176 520.168C204.658 520.979 202.162 521.384 199.688 521.384C196.445 521.384 193.48 520.723 190.792 519.4C188.104 518.035 185.778 516.243 183.816 514.024C181.896 511.763 180.381 509.245 179.272 506.472C178.205 503.656 177.672 500.819 177.672 497.96ZM238.83 521.64C236.099 521.64 233.646 521.192 231.47 520.296C229.294 519.357 227.438 518.077 225.902 516.456C224.408 514.835 223.256 512.979 222.446 510.888C221.635 508.797 221.23 506.6 221.23 504.296C221.23 501.949 221.635 499.731 222.446 497.64C223.256 495.549 224.408 493.693 225.902 492.072C227.438 490.451 229.294 489.192 231.47 488.296C233.646 487.357 236.099 486.888 238.83 486.888C241.56 486.888 243.992 487.357 246.126 488.296C248.302 489.192 250.158 490.451 251.694 492.072C253.23 493.693 254.382 495.549 255.15 497.64C255.96 499.731 256.366 501.949 256.366 504.296C256.366 506.6 255.96 508.797 255.15 510.888C254.382 512.979 253.23 514.835 251.694 516.456C250.2 518.077 248.366 519.357 246.19 520.296C244.014 521.192 241.56 521.64 238.83 521.64ZM230.062 504.296C230.062 506.259 230.446 508.008 231.214 509.544C231.982 511.037 233.027 512.211 234.35 513.064C235.672 513.917 237.166 514.344 238.83 514.344C240.451 514.344 241.923 513.917 243.246 513.064C244.568 512.168 245.614 510.973 246.382 509.48C247.192 507.944 247.598 506.195 247.598 504.232C247.598 502.312 247.192 500.584 246.382 499.048C245.614 497.512 244.568 496.317 243.246 495.464C241.923 494.611 240.451 494.184 238.83 494.184C237.166 494.184 235.672 494.632 234.35 495.528C233.027 496.381 231.982 497.576 231.214 499.112C230.446 500.605 230.062 502.333 230.062 504.296ZM270.053 521L257.701 487.464H266.597L275.045 513.192L283.557 487.464H291.685L279.397 521H270.053ZM310.644 521.64C307.956 521.64 305.524 521.192 303.348 520.296C301.172 519.357 299.316 518.099 297.78 516.52C296.244 514.899 295.049 513.064 294.196 511.016C293.385 508.925 292.98 506.728 292.98 504.424C292.98 501.224 293.684 498.301 295.092 495.656C296.542 493.011 298.59 490.899 301.236 489.32C303.924 487.699 307.081 486.888 310.708 486.888C314.377 486.888 317.513 487.699 320.116 489.32C322.718 490.899 324.702 493.011 326.068 495.656C327.476 498.259 328.18 501.075 328.18 504.104C328.18 504.616 328.158 505.149 328.116 505.704C328.073 506.216 328.03 506.643 327.988 506.984H302.068C302.238 508.691 302.729 510.184 303.54 511.464C304.393 512.744 305.46 513.725 306.74 514.408C308.062 515.048 309.47 515.368 310.964 515.368C312.67 515.368 314.27 514.963 315.764 514.152C317.3 513.299 318.345 512.189 318.9 510.824L326.26 512.872C325.449 514.579 324.276 516.093 322.74 517.416C321.246 518.739 319.476 519.784 317.428 520.552C315.38 521.277 313.118 521.64 310.644 521.64ZM301.876 501.544H319.412C319.241 499.837 318.75 498.365 317.94 497.128C317.172 495.848 316.148 494.867 314.868 494.184C313.588 493.459 312.158 493.096 310.58 493.096C309.044 493.096 307.636 493.459 306.356 494.184C305.118 494.867 304.094 495.848 303.284 497.128C302.516 498.365 302.046 499.837 301.876 501.544ZM353.372 494.888C350.769 494.888 348.444 495.4 346.396 496.424C344.348 497.405 342.876 498.835 341.98 500.712V521H333.404V487.464H341.276V494.632C342.471 492.328 343.985 490.515 345.82 489.192C347.655 487.869 349.596 487.144 351.644 487.016C352.113 487.016 352.476 487.016 352.732 487.016C352.988 487.016 353.201 487.037 353.372 487.08V494.888ZM381.756 491.816V521H372.924V475.56H379.964L403.451 505.512V475.624H412.284V521H404.924L381.756 491.816ZM435.83 521.64C433.099 521.64 430.646 521.192 428.47 520.296C426.294 519.357 424.438 518.077 422.902 516.456C421.408 514.835 420.256 512.979 419.446 510.888C418.635 508.797 418.23 506.6 418.23 504.296C418.23 501.949 418.635 499.731 419.446 497.64C420.256 495.549 421.408 493.693 422.902 492.072C424.438 490.451 426.294 489.192 428.47 488.296C430.646 487.357 433.099 486.888 435.83 486.888C438.56 486.888 440.992 487.357 443.126 488.296C445.302 489.192 447.158 490.451 448.694 492.072C450.23 493.693 451.382 495.549 452.15 497.64C452.96 499.731 453.366 501.949 453.366 504.296C453.366 506.6 452.96 508.797 452.15 510.888C451.382 512.979 450.23 514.835 448.694 516.456C447.2 518.077 445.366 519.357 443.19 520.296C441.014 521.192 438.56 521.64 435.83 521.64ZM427.062 504.296C427.062 506.259 427.446 508.008 428.214 509.544C428.982 511.037 430.027 512.211 431.35 513.064C432.672 513.917 434.166 514.344 435.83 514.344C437.451 514.344 438.923 513.917 440.246 513.064C441.568 512.168 442.614 510.973 443.382 509.48C444.192 507.944 444.598 506.195 444.598 504.232C444.598 502.312 444.192 500.584 443.382 499.048C442.614 497.512 441.568 496.317 440.246 495.464C438.923 494.611 437.451 494.184 435.83 494.184C434.166 494.184 432.672 494.632 431.35 495.528C430.027 496.381 428.982 497.576 428.214 499.112C427.446 500.605 427.062 502.333 427.062 504.296ZM478.75 519.272C478.025 519.571 477.15 519.912 476.126 520.296C475.102 520.68 473.993 520.979 472.798 521.192C471.646 521.448 470.473 521.576 469.278 521.576C467.699 521.576 466.249 521.299 464.926 520.744C463.603 520.189 462.537 519.315 461.726 518.12C460.958 516.883 460.574 515.283 460.574 513.32V494.056H456.158V487.464H460.574V476.584H469.15V487.464H476.19V494.056H469.15V510.44C469.193 511.592 469.513 512.424 470.11 512.936C470.707 513.448 471.454 513.704 472.35 513.704C473.246 513.704 474.121 513.555 474.974 513.256C475.827 512.957 476.51 512.701 477.022 512.488L478.75 519.272ZM202.338 550.56H211.298L228.002 596H218.914L214.69 584.672H198.818L194.658 596H185.57L202.338 550.56ZM213.09 578.464L206.818 559.712L200.29 578.464H213.09ZM239.053 596L226.701 562.464H235.597L244.045 588.192L252.557 562.464H260.685L248.397 596H239.053ZM262.038 586.08C262.038 583.904 262.635 582.005 263.83 580.384C265.067 578.72 266.774 577.44 268.95 576.544C271.126 575.648 273.622 575.2 276.438 575.2C277.846 575.2 279.275 575.307 280.726 575.52C282.176 575.733 283.435 576.075 284.502 576.544V574.752C284.502 572.619 283.862 570.976 282.582 569.824C281.344 568.672 279.488 568.096 277.014 568.096C275.179 568.096 273.43 568.416 271.766 569.056C270.102 569.696 268.352 570.635 266.518 571.872L263.766 566.24C265.984 564.789 268.246 563.701 270.55 562.976C272.896 562.251 275.35 561.888 277.91 561.888C282.688 561.888 286.4 563.083 289.046 565.472C291.734 567.861 293.078 571.275 293.078 575.712V586.4C293.078 587.296 293.227 587.936 293.526 588.32C293.867 588.704 294.4 588.939 295.126 589.024V596C294.358 596.128 293.654 596.235 293.014 596.32C292.416 596.405 291.904 596.448 291.478 596.448C289.771 596.448 288.47 596.064 287.574 595.296C286.72 594.528 286.187 593.589 285.974 592.48L285.782 590.752C284.331 592.629 282.518 594.08 280.342 595.104C278.166 596.128 275.947 596.64 273.686 596.64C271.467 596.64 269.462 596.192 267.67 595.296C265.92 594.357 264.534 593.099 263.51 591.52C262.528 589.899 262.038 588.085 262.038 586.08ZM282.902 587.808C283.371 587.296 283.755 586.784 284.054 586.272C284.352 585.76 284.502 585.291 284.502 584.864V581.472C283.478 581.045 282.368 580.725 281.174 580.512C279.979 580.256 278.848 580.128 277.782 580.128C275.563 580.128 273.728 580.619 272.278 581.6C270.87 582.539 270.166 583.797 270.166 585.376C270.166 586.229 270.4 587.04 270.87 587.808C271.339 588.576 272.022 589.195 272.918 589.664C273.814 590.133 274.88 590.368 276.118 590.368C277.398 590.368 278.656 590.133 279.894 589.664C281.131 589.152 282.134 588.533 282.902 587.808ZM301.092 596V562.464H309.668V596H301.092ZM301.092 557.792V549.28H309.668V557.792H301.092ZM317.34 549.28H325.916V585.248C325.916 586.784 326.172 587.829 326.684 588.384C327.196 588.896 327.9 589.152 328.796 589.152C329.479 589.152 330.183 589.067 330.908 588.896C331.633 588.725 332.273 588.512 332.828 588.256L333.98 594.784C332.828 595.339 331.484 595.765 329.948 596.064C328.412 596.363 327.025 596.512 325.788 596.512C323.1 596.512 321.009 595.808 319.516 594.4C318.065 592.949 317.34 590.901 317.34 588.256V549.28ZM335.413 586.08C335.413 583.904 336.01 582.005 337.205 580.384C338.442 578.72 340.149 577.44 342.325 576.544C344.501 575.648 346.997 575.2 349.812 575.2C351.221 575.2 352.65 575.307 354.101 575.52C355.551 575.733 356.81 576.075 357.877 576.544V574.752C357.877 572.619 357.237 570.976 355.957 569.824C354.719 568.672 352.863 568.096 350.389 568.096C348.554 568.096 346.805 568.416 345.141 569.056C343.477 569.696 341.727 570.635 339.893 571.872L337.141 566.24C339.359 564.789 341.621 563.701 343.925 562.976C346.271 562.251 348.725 561.888 351.285 561.888C356.063 561.888 359.775 563.083 362.421 565.472C365.109 567.861 366.453 571.275 366.453 575.712V586.4C366.453 587.296 366.602 587.936 366.901 588.32C367.242 588.704 367.775 588.939 368.501 589.024V596C367.733 596.128 367.029 596.235 366.389 596.32C365.791 596.405 365.279 596.448 364.853 596.448C363.146 596.448 361.845 596.064 360.949 595.296C360.095 594.528 359.562 593.589 359.349 592.48L359.157 590.752C357.706 592.629 355.893 594.08 353.717 595.104C351.541 596.128 349.322 596.64 347.061 596.64C344.842 596.64 342.837 596.192 341.045 595.296C339.295 594.357 337.909 593.099 336.885 591.52C335.903 589.899 335.413 588.085 335.413 586.08ZM356.277 587.808C356.746 587.296 357.13 586.784 357.429 586.272C357.727 585.76 357.877 585.291 357.877 584.864V581.472C356.853 581.045 355.743 580.725 354.549 580.512C353.354 580.256 352.223 580.128 351.157 580.128C348.938 580.128 347.103 580.619 345.653 581.6C344.245 582.539 343.541 583.797 343.541 585.376C343.541 586.229 343.775 587.04 344.245 587.808C344.714 588.576 345.397 589.195 346.293 589.664C347.189 590.133 348.255 590.368 349.493 590.368C350.773 590.368 352.031 590.133 353.269 589.664C354.506 589.152 355.509 588.533 356.277 587.808ZM393.539 596.64C390.979 596.64 388.696 596.064 386.691 594.912C384.685 593.76 383.107 592.181 381.955 590.176V596H374.467V549.28H383.043V568.352C384.237 566.347 385.795 564.768 387.715 563.616C389.677 562.464 391.96 561.888 394.563 561.888C396.739 561.888 398.723 562.357 400.515 563.296C402.307 564.192 403.843 565.451 405.123 567.072C406.445 568.693 407.448 570.549 408.131 572.64C408.856 574.731 409.219 576.971 409.219 579.36C409.219 581.749 408.813 583.989 408.003 586.08C407.235 588.171 406.147 590.027 404.739 591.648C403.331 593.227 401.667 594.464 399.747 595.36C397.869 596.213 395.8 596.64 393.539 596.64ZM391.171 589.344C392.536 589.344 393.773 589.088 394.883 588.576C396.035 588.021 397.016 587.296 397.827 586.4C398.68 585.504 399.32 584.459 399.747 583.264C400.216 582.027 400.451 580.747 400.451 579.424C400.451 577.589 400.067 575.904 399.299 574.368C398.573 572.789 397.549 571.531 396.227 570.592C394.947 569.653 393.432 569.184 391.683 569.184C390.445 569.184 389.251 569.483 388.099 570.08C386.989 570.635 385.987 571.403 385.091 572.384C384.237 573.365 383.555 574.475 383.043 575.712V583.712C383.299 584.565 383.704 585.333 384.259 586.016C384.856 586.699 385.539 587.296 386.307 587.808C387.075 588.277 387.864 588.661 388.675 588.96C389.528 589.216 390.36 589.344 391.171 589.344ZM414.965 549.28H423.541V585.248C423.541 586.784 423.797 587.829 424.309 588.384C424.821 588.896 425.525 589.152 426.421 589.152C427.104 589.152 427.808 589.067 428.533 588.896C429.258 588.725 429.898 588.512 430.453 588.256L431.605 594.784C430.453 595.339 429.109 595.765 427.573 596.064C426.037 596.363 424.65 596.512 423.413 596.512C420.725 596.512 418.634 595.808 417.141 594.4C415.69 592.949 414.965 590.901 414.965 588.256V549.28ZM450.894 596.64C448.206 596.64 445.774 596.192 443.598 595.296C441.422 594.357 439.566 593.099 438.03 591.52C436.494 589.899 435.299 588.064 434.446 586.016C433.635 583.925 433.23 581.728 433.23 579.424C433.23 576.224 433.934 573.301 435.342 570.656C436.792 568.011 438.84 565.899 441.486 564.32C444.174 562.699 447.331 561.888 450.958 561.888C454.627 561.888 457.763 562.699 460.366 564.32C462.968 565.899 464.952 568.011 466.318 570.656C467.726 573.259 468.43 576.075 468.43 579.104C468.43 579.616 468.408 580.149 468.366 580.704C468.323 581.216 468.28 581.643 468.238 581.984H442.318C442.488 583.691 442.979 585.184 443.79 586.464C444.643 587.744 445.71 588.725 446.99 589.408C448.312 590.048 449.72 590.368 451.214 590.368C452.92 590.368 454.52 589.963 456.014 589.152C457.55 588.299 458.595 587.189 459.15 585.824L466.51 587.872C465.699 589.579 464.526 591.093 462.99 592.416C461.496 593.739 459.726 594.784 457.678 595.552C455.63 596.277 453.368 596.64 450.894 596.64ZM442.126 576.544H459.662C459.491 574.837 459 573.365 458.19 572.128C457.422 570.848 456.398 569.867 455.118 569.184C453.838 568.459 452.408 568.096 450.83 568.096C449.294 568.096 447.886 568.459 446.606 569.184C445.368 569.867 444.344 570.848 443.534 572.128C442.766 573.365 442.296 574.837 442.126 576.544Z" fill="#C0C0C1"/>
<path d="M483.239 265.384C483.04 265.506 482.756 265.671 482.319 265.922L482.213 265.982C481.521 266.379 480.36 267.043 479.206 267.882C459.382 282.291 382.406 342.635 324.198 449.985L323.89 450.552C323.869 450.505 323.846 450.455 323.822 450.4L323.792 450.332C323.61 449.926 323.304 449.242 322.931 448.529C313.07 429.679 261.8 337.353 168.788 267.389C167.784 266.634 166.765 266.006 166.148 265.625C166.109 265.602 166.072 265.579 166.037 265.557C165.477 265.211 165.189 265.027 165.002 264.898V264.868V264.849C165.193 264.725 165.488 264.552 166.087 264.211L166.182 264.157C166.844 263.78 167.956 263.148 169.071 262.347C186.943 249.518 263.394 190.694 322.342 83.8366C323.05 82.552 323.593 81.2573 323.921 80.4727C323.943 80.422 323.963 80.3734 323.982 80.327C324.213 79.7784 324.362 79.4334 324.473 79.1946C324.532 79.3214 324.616 79.5087 324.758 79.8292L324.784 79.8894C324.969 80.3089 325.279 81.0101 325.654 81.7337C334.353 98.5337 386.266 193.653 482.332 264.783L482.854 265.17L483.239 265.384ZM165.002 265.097V265.09C165.002 265.092 165.002 265.094 165.002 265.097Z" stroke="#C0C0C1" stroke-width="20"/>
<path d="M467.88 263.445L467.939 263.535L468.001 263.623C468.228 263.944 468.378 264.313 468.44 264.701C468.501 265.089 468.473 265.486 468.357 265.861C468.241 266.237 468.04 266.581 467.77 266.866C467.681 266.96 467.586 267.046 467.485 267.125C467.16 267.378 466.75 267.632 465.986 268.074C465.93 268.106 465.872 268.14 465.811 268.175C465.147 268.559 464.182 269.116 463.252 269.794C445.449 282.775 377.724 336.118 326.458 430.707L326.271 431.052L326.131 431.419C325.976 431.822 325.727 432.182 325.404 432.469C325.09 432.747 324.717 432.948 324.313 433.056C324.13 433.096 323.896 433.124 323.581 433.124H323.509L323.437 433.126C323.065 433.135 322.696 433.046 322.369 432.867C322.042 432.689 321.767 432.428 321.573 432.111L321.516 432.018L321.456 431.928C321.419 431.871 321.384 431.814 321.351 431.755C321.241 431.555 321.126 431.31 320.921 430.857L320.872 430.748C320.695 430.355 320.438 429.782 320.138 429.211C311.245 412.237 265.984 330.977 184.16 269.317C183.351 268.707 182.5 268.18 181.907 267.811C181.845 267.772 181.785 267.735 181.729 267.7C181.04 267.271 180.66 267.02 180.368 266.783C180.167 266.619 179.99 266.426 179.846 266.207C179.569 265.789 179.422 265.298 179.422 264.796V264.792V264.595V264.529L179.421 264.462C179.409 263.929 179.563 263.406 179.861 262.965C180.018 262.733 180.21 262.529 180.43 262.361C180.742 262.123 181.133 261.884 181.863 261.464C181.914 261.434 181.967 261.404 182.022 261.372C182.657 261.008 183.583 260.476 184.479 259.83C200.58 248.233 267.7 196.324 319.578 102.374C320.15 101.339 320.606 100.258 320.926 99.5029C320.96 99.4213 320.993 99.3435 321.025 99.2699C321.398 98.3917 321.624 97.9039 321.855 97.5263C321.921 97.417 321.996 97.3126 322.079 97.2139C322.343 96.8993 322.679 96.6527 323.058 96.4949C323.437 96.3371 323.848 96.2728 324.258 96.3072C324.667 96.3416 325.062 96.4738 325.409 96.6927L325.525 96.7657L325.644 96.8333C326.065 97.0723 326.407 97.4239 326.634 97.845C326.745 98.052 326.862 98.303 327.066 98.7641C327.081 98.7959 327.095 98.8293 327.111 98.864C327.288 99.2644 327.546 99.8467 327.849 100.431C335.715 115.6 381.621 199.468 466.289 262.189L466.602 262.421L466.943 262.611C467.383 262.855 467.694 263.16 467.88 263.445Z" stroke="#C0C0C1" stroke-width="12"/>
<g clip-path="url(#clip0_2_119)">
<path d="M285.032 215.834L375.602 197.364V222.621L285.032 241.091V215.834Z" fill="#C0C0C1"/>
<path d="M299.613 215.814H285.032V310.228H299.613V215.814Z" fill="#C0C0C1"/>
<path d="M299.139 306.494C301.744 316.218 293.347 326.916 280.383 330.39C267.418 333.864 254.797 328.797 252.191 319.074C249.586 309.351 257.984 298.653 270.948 295.179C283.912 291.705 296.534 296.771 299.139 306.494V306.494Z" fill="#C0C0C1"/>
<path d="M375.602 200.391H361.021V294.804H375.602V200.391Z" fill="#C0C0C1"/>
<path d="M375.128 291.071C377.733 300.794 369.335 311.493 356.371 314.967C343.407 318.44 330.785 313.374 328.18 303.651C325.574 293.928 333.972 283.229 346.936 279.756C359.901 276.282 372.522 281.348 375.128 291.071V291.071Z" fill="#C0C0C1"/>
</g>
<defs>
<filter id="filter0_d_2_119" x="0" y="0" width="648" height="648" filterUnits="userSpaceOnUse" color-interpolation-filters="sRGB">
<feFlood flood-opacity="0" result="BackgroundImageFix"/>
<feColorMatrix in="SourceAlpha" type="matrix" values="0 0 0 0 0 0 0 0 0 0 0 0 0 0 0 0 0 0 127 0" result="hardAlpha"/>
<feOffset dy="4"/>
<feGaussianBlur stdDeviation="2"/>
<feComposite in2="hardAlpha" operator="out"/>
<feColorMatrix type="matrix" values="0 0 0 0 0 0 0 0 0 0 0 0 0 0 0 0 0 0 0.25 0"/>
<feBlend mode="normal" in2="BackgroundImageFix" result="effect1_dropShadow_2_119"/>
<feBlend mode="normal" in="SourceGraphic" in2="effect1_dropShadow_2_119" result="shape"/>
</filter>
<clipPath id="clip0_2_119">
<rect x="246.599" y="197.364" width="134.12" height="134.12" rx="20" fill="white"/>
</clipPath>
</defs>
</svg>
