<svg width="421" height="487" viewBox="0 0 421 487" fill="none" xmlns="http://www.w3.org/2000/svg">
<path d="M413.657 239.622L413.706 239.697L413.758 239.771C414.373 240.64 414.779 241.638 414.946 242.689C415.113 243.74 415.037 244.814 414.722 245.831C414.407 246.847 413.863 247.778 413.131 248.551C412.399 249.324 411.499 249.918 410.5 250.288L409.883 250.517L409.346 250.897C390.537 264.225 290.993 338.921 216.486 476.329L216.33 476.616L216.213 476.922C215.804 477.989 215.144 478.942 214.288 479.7C213.441 480.452 212.426 480.99 211.329 481.272C210.777 481.4 210.179 481.463 209.507 481.463H209.447L209.387 481.464C208.277 481.491 207.179 481.226 206.203 480.695C205.228 480.164 204.409 479.386 203.83 478.44L203.782 478.363L203.732 478.288C203.409 477.801 203.15 477.274 202.962 476.721L202.843 476.37L202.674 476.041C192.955 457.168 128.872 338.586 10.252 250.321L9.77298 249.964L9.22345 249.73C7.9704 249.198 6.90223 248.308 6.15185 247.173C5.40148 246.038 5.002 244.708 5.00295 243.348V243.344V243.07V243.014L5.00171 242.959C4.96974 241.519 5.38574 240.105 6.1925 238.912C6.99929 237.718 8.15716 236.804 9.50646 236.296L10.0929 236.076L10.6067 235.717C26.2321 224.812 126.91 151.082 202.881 11.7317L203.217 11.1148L203.371 10.4292C203.613 9.34402 204.113 8.33285 204.828 7.48081C205.544 6.62876 206.453 5.96076 207.481 5.53321C208.509 5.10567 209.625 4.93116 210.734 5.02445C211.843 5.11775 212.914 5.4761 213.856 6.06918L213.952 6.12996L214.052 6.18628C215.545 7.03423 216.671 8.40465 217.212 10.0327L217.33 10.386L217.498 10.718C224.944 25.3857 288.995 146.951 410.623 237.009L410.885 237.202L411.169 237.36C412.218 237.944 413.074 238.732 413.657 239.622Z" stroke="black" stroke-width="10"/>
<path d="M389.489 240.511L389.548 240.601L389.61 240.689C390.02 241.269 390.291 241.934 390.402 242.635C390.513 243.335 390.462 244.052 390.252 244.73C390.042 245.407 389.68 246.028 389.192 246.543C388.705 247.058 388.105 247.454 387.44 247.7L386.699 247.975L386.055 248.432C369.221 260.366 280.474 327 214.048 449.562L213.861 449.907L213.721 450.274C213.446 450.991 213.002 451.631 212.428 452.141C211.863 452.642 211.188 453.002 210.458 453.192C210.105 453.273 209.699 453.318 209.206 453.318H209.134L209.062 453.32C208.347 453.337 207.639 453.166 207.011 452.824C206.382 452.482 205.855 451.98 205.481 451.37L205.424 451.277L205.364 451.187C205.151 450.865 204.98 450.517 204.856 450.151L204.713 449.73L204.509 449.335C195.826 432.465 138.695 326.695 32.9056 247.94L32.3307 247.512L31.6712 247.231C30.8374 246.876 30.1263 246.284 29.6267 245.528C29.127 244.772 28.8609 243.886 28.8615 242.979V242.975V242.731V242.664L28.8601 242.597C28.8387 241.637 29.1162 240.694 29.654 239.898C30.1918 239.102 30.9634 238.492 31.8623 238.154L32.5661 237.889L33.1828 237.458C47.188 227.679 136.946 161.905 204.677 37.6115L205.08 36.8715L205.264 36.0489C205.425 35.3254 205.758 34.6514 206.235 34.0835C206.711 33.5157 207.317 33.0706 208.002 32.7858C208.686 32.501 209.429 32.3848 210.167 32.4469C210.906 32.5091 211.619 32.7477 212.246 33.1429L212.362 33.2158L212.481 33.2835C213.475 33.8484 214.225 34.7616 214.586 35.8471L214.727 36.2709L214.929 36.6691C221.59 49.7961 278.693 158.229 387.165 238.582L387.479 238.815L387.82 239.004C388.552 239.412 389.119 239.946 389.489 240.511Z" stroke="black" stroke-width="12"/>
<g clip-path="url(#clip0_1_30)">
<path d="M161.368 182.218L273.763 159.298V190.641L161.368 213.562V182.218Z" fill="black"/>
<path d="M179.463 182.194H161.368V299.36H179.463V182.194Z" fill="black"/>
<path d="M178.875 294.727C182.108 306.793 171.686 320.07 155.598 324.381C139.509 328.692 123.846 322.405 120.613 310.338C117.38 298.272 127.801 284.995 143.89 280.684C159.978 276.374 175.641 282.661 178.875 294.727V294.727Z" fill="black"/>
<path d="M273.763 163.054H255.668V280.22H273.763V163.054Z" fill="black"/>
<path d="M273.175 275.587C276.408 287.653 265.987 300.93 249.899 305.241C233.81 309.552 218.147 303.265 214.914 291.198C211.68 279.132 222.102 265.855 238.19 261.545C254.279 257.234 269.942 263.521 273.175 275.587V275.587Z" fill="black"/>
</g>
<defs>
<clipPath id="clip0_1_30">
<rect width="166.441" height="166.441" fill="white" transform="translate(113.673 159.298)"/>
</clipPath>
</defs>
</svg>
