<?xml version="1.0" standalone="no"?>
<!DOCTYPE svg PUBLIC "-//W3C//DTD SVG 20010904//EN"
 "http://www.w3.org/TR/2001/REC-SVG-20010904/DTD/svg10.dtd">
<svg version="1.0" xmlns="http://www.w3.org/2000/svg"
 width="512.000000pt" height="512.000000pt" viewBox="0 0 512.000000 512.000000"
 preserveAspectRatio="xMidYMid meet">
<metadata>
Created by potrace 1.14, written by Peter Selinger 2001-2017
</metadata>
<g transform="translate(0.000000,512.000000) scale(0.100000,-0.100000)"
fill="#000000" stroke="none">
<path d="M115 5103 c-45 -23 -86 -64 -101 -100 -12 -27 -14 -418 -14 -2443 0
-2353 0 -2412 19 -2448 23 -45 66 -87 104 -101 20 -8 760 -11 2438 -11 2352 0
2411 0 2447 19 45 23 87 66 101 104 8 20 11 760 11 2438 0 2352 0 2411 -19
2447 -23 45 -66 87 -104 101 -20 8 -759 11 -2440 11 -2178 -1 -2415 -2 -2442
-17z m2515 -142 c14 -10 38 -42 54 -72 297 -561 733 -1146 1216 -1630 230
-230 392 -371 707 -614 74 -58 62 -149 -26 -203 -145 -90 -485 -387 -741 -648
-436 -446 -800 -929 -1106 -1467 -99 -173 -121 -197 -179 -197 -57 0 -80 24
-158 167 -432 789 -1131 1604 -1822 2123 -77 58 -97 78 -106 108 -17 59 5 101
83 153 308 207 778 657 1128 1079 272 328 618 839 763 1126 51 101 115 127
187 75z"/>
<path d="M2516 4833 c-110 -227 -429 -709 -664 -1004 -345 -436 -786 -877
-1147 -1150 -55 -42 -110 -81 -122 -88 -42 -22 -27 -44 85 -128 389 -292 843
-748 1199 -1203 239 -307 497 -697 633 -959 24 -44 49 -81 55 -81 7 0 52 69
100 152 439 768 1011 1452 1661 1984 71 58 155 122 186 142 31 20 57 44 57 53
1 9 -40 48 -91 87 -709 540 -1416 1369 -1837 2155 -35 64 -58 97 -70 97 -11 0
-27 -21 -45 -57z m95 -128 c20 -11 40 -38 65 -88 101 -199 337 -562 532 -816
306 -399 696 -795 1060 -1078 135 -105 152 -124 152 -168 0 -41 -21 -69 -83
-108 -80 -51 -307 -241 -460 -385 -440 -412 -854 -938 -1157 -1467 -50 -88
-97 -166 -104 -173 -7 -8 -32 -16 -54 -19 -37 -5 -44 -2 -73 28 -17 19 -72
106 -121 194 -372 662 -934 1313 -1543 1788 -91 70 -122 101 -129 125 -14 49
8 87 75 133 269 182 665 557 965 915 261 309 574 766 709 1034 19 37 45 76 57
84 28 20 71 20 109 1z"/>
<path d="M2536 4554 c-31 -65 -197 -336 -298 -487 -369 -548 -850 -1068 -1318
-1426 -52 -40 -96 -76 -97 -80 -1 -3 31 -31 70 -61 242 -184 564 -486 794
-743 300 -337 579 -723 795 -1101 50 -88 75 -124 81 -115 4 8 44 77 88 154
223 384 514 780 825 1120 215 234 539 533 742 684 40 30 71 58 70 62 -2 4 -50
44 -108 90 -264 207 -610 540 -825 793 -286 335 -567 733 -730 1034 -33 61
-63 111 -66 112 -3 0 -13 -16 -23 -36z m624 -1189 l30 -16 0 -602 c0 -565 -2
-604 -19 -642 -26 -55 -84 -109 -156 -142 -53 -24 -72 -28 -155 -28 -102 0
-137 11 -193 64 -40 37 -57 73 -57 123 1 60 29 115 84 166 70 64 124 85 234
90 l92 4 0 335 0 334 -32 -6 c-18 -4 -190 -39 -383 -78 l-350 -72 -5 -475 c-6
-534 -3 -514 -82 -586 -61 -54 -139 -86 -225 -92 -86 -5 -148 9 -203 49 -49
36 -72 79 -73 138 -1 87 66 177 171 228 46 22 73 28 149 31 l93 4 0 487 0 486
518 107 c284 58 521 107 525 107 4 1 21 -6 37 -14z"/>
</g>
</svg>
